<?xml version="1.0" encoding="UTF-8" standalone="no"?>
<!-- Created with Inkscape (http://www.inkscape.org/) -->

<svg
   version="1.1"
   id="svg1"
   width="257.33334"
   height="257.33334"
   viewBox="0 0 257.33334 257.33334"
   sodipodi:docname="olimex.svg"
   inkscape:version="1.4 (e7c3feb100, 2024-10-09)"
   xmlns:inkscape="http://www.inkscape.org/namespaces/inkscape"
   xmlns:sodipodi="http://sodipodi.sourceforge.net/DTD/sodipodi-0.dtd"
   xmlns="http://www.w3.org/2000/svg"
   xmlns:svg="http://www.w3.org/2000/svg">
  <defs
     id="defs1" />
  <sodipodi:namedview
     id="namedview1"
     pagecolor="#ffffff"
     bordercolor="#000000"
     borderopacity="0.25"
     inkscape:showpageshadow="2"
     inkscape:pageopacity="0.0"
     inkscape:pagecheckerboard="0"
     inkscape:deskcolor="#d1d1d1"
     inkscape:zoom="4.2940412"
     inkscape:cx="128.78311"
     inkscape:cy="128.66667"
     inkscape:window-width="2560"
     inkscape:window-height="1376"
     inkscape:window-x="0"
     inkscape:window-y="0"
     inkscape:window-maximized="1"
     inkscape:current-layer="g1"
     inkscape:antialias-rendering="false">
    <inkscape:page
       x="0"
       y="0"
       inkscape:label="1"
       id="page1"
       width="257.33334"
       height="257.33334"
       margin="0"
       bleed="0" />
  </sodipodi:namedview>
  <g
     id="g1"
     inkscape:groupmode="layer"
     inkscape:label="1">
    <path
       id="path1"
       d="M 0,1927.56 H 1927.56 V 0 H 0 v 1927.56"
       style="fill:#000000;fill-opacity:1.0;fill-rule:evenodd;stroke:none"
       transform="matrix(0.13333333,0,0,-0.13333333,0,257.33333)" />
    <path
       id="path2"
       d="m 18.835237,104.91791 -0.436135,-0.47482 v -5.443978 l -1.068057,0.0037 v 5.925328 l 1.058594,1.17746 h 0.01867 l 0.009,0.0138 0.0219,-0.0138 h 2.092428 c 0.160928,0.19152 0.390076,0.31438 0.646658,0.31438 0.482943,0 0.869722,-0.42721 0.869722,-0.95965 0,-0.53219 -0.386779,-0.96227 -0.869722,-0.96227 -0.296906,0 -0.563143,0.16711 -0.72098,0.41986 z m -6.171926,-3.77148 c 0.201204,0.16374 0.331272,0.43358 0.331272,0.7371 0,0.29707 -0.130068,0.56286 -0.328276,0.73016 l 0.0065,1.64233 0.572369,0.66189 h 1.559953 l 0.56042,-0.66945 v -3.50486 l -0.547722,-0.63841 -1.600405,0.004 -0.554078,0.63455 z m -1.058402,1.39905 c -0.164238,-0.16029 -0.266363,-0.39918 -0.266363,-0.66195 0,-0.26961 0.102125,-0.50854 0.266363,-0.66858 v -0.82639 l 1.269069,-1.395773 2.265496,-0.0037 1.309408,1.460953 v 4.19143 l -1.272191,1.44366 h -2.302713 l -1.269069,-1.40598 z m 0.556994,-0.95563 c 0.151655,0 0.269153,0.12965 0.269153,0.29703 0,0.16369 -0.117498,0.29372 -0.269153,0.29372 -0.148548,0 -0.26611,-0.13003 -0.26611,-0.29372 0,-0.16738 0.117562,-0.29703 0.26611,-0.29703 z m 21.372776,0.60771 c 0.154699,0 0.278968,0.13972 0.278968,0.31396 0,0.17088 -0.124269,0.31409 -0.278968,0.31409 -0.157884,0 -0.281515,-0.14321 -0.281515,-0.31409 0,-0.17424 0.123631,-0.31396 0.281515,-0.31396 z m 4.925019,-3.010121 c 0.157247,0 0.284542,0.136503 0.284542,0.306912 0,0.166895 -0.127295,0.310599 -0.284542,0.310599 -0.155336,0 -0.279127,-0.143704 -0.279127,-0.310599 0,-0.170409 0.123791,-0.306912 0.279127,-0.306912 z m -9.88668,6.013551 c 0.157726,0 0.281835,0.13655 0.281835,0.31052 0,0.17774 -0.124109,0.31389 -0.281835,0.31389 -0.154381,0 -0.278648,-0.13615 -0.278648,-0.31389 0,-0.17397 0.124267,-0.31052 0.278648,-0.31052 z m -5.363862,0 c 0.157519,0 0.281611,0.13655 0.281611,0.31052 0,0.17774 -0.124092,0.31389 -0.281611,0.31389 -0.154842,0 -0.284846,-0.13615 -0.284846,-0.31389 0,-0.17397 0.130004,-0.31052 0.284846,-0.31052 z m -2.033798,-0.0475 c 0.160991,0 0.284654,0.13944 0.284654,0.31396 0,0.17039 -0.123663,0.30743 -0.284654,0.30743 -0.157885,0 -0.281612,-0.13704 -0.281612,-0.30743 0,-0.17452 0.123727,-0.31396 0.281612,-0.31396 z m -0.04345,-6.031405 c 0.157821,0 0.281676,0.140016 0.281676,0.314289 0,0.170936 -0.123855,0.313763 -0.281676,0.313763 -0.154587,0 -0.284718,-0.142827 -0.284718,-0.313763 0,-0.174273 0.130131,-0.314289 0.284718,-0.314289 z m 4.711356,3.430465 c 0.15771,0 0.281182,0.13979 0.281182,0.31382 0,0.17121 -0.123472,0.31388 -0.281182,0.31388 -0.154968,0 -0.285037,-0.14267 -0.285037,-0.31388 0,-0.17403 0.130069,-0.31382 0.285037,-0.31382 z m 12.640487,2.69969 c 0.145777,0 0.269568,0.13691 0.269568,0.3001 0,0.16045 -0.123791,0.29383 -0.269568,0.29383 -0.148484,0 -0.265902,-0.13338 -0.265902,-0.29383 0,-0.16319 0.117418,-0.3001 0.265902,-0.3001 z m 0.817305,0.26235 c 0,0.47489 -0.349545,0.87764 -0.767757,0.92526 -0.529097,0.0443 -0.992873,-0.48791 -0.900469,-1.06491 l -1.594302,-1.58687 -2.095041,2.31752 h -2.680694 l -1.073968,-1.18769 v -0.004 -4.61473 l 1.120488,-1.310573 h 2.661897 l 2.105236,2.290153 1.519423,-1.685993 c 0,-0.03724 -0.0092,-0.06799 -0.0092,-0.102596 0,-0.532306 0.389694,-0.962194 0.873067,-0.962194 0.488471,0 0.878802,0.429888 0.878802,0.962194 0,0.532479 -0.390331,0.959379 -0.878802,0.959379 -0.04095,0 -0.0779,0 -0.118055,-0.007 l -1.637637,1.79894 H 35.41353 c -0.615927,-0.67916 -1.259575,-1.36167 -1.887927,-2.05103 h -1.835351 l -0.429842,0.47397 v 1.30044 h 1.556385 c 0.154538,-0.25567 0.414706,-0.41273 0.717889,-0.41273 0.480027,0 0.866694,0.42687 0.866694,0.95891 0,0.53273 -0.386667,0.95889 -0.866694,0.95889 -0.321664,0 -0.597286,-0.19462 -0.748957,-0.47433 h -1.525322 v 1.46054 l 0.435896,0.4613 h 1.838378 l 1.888404,-2.08208 1.268974,0.003 1.680333,1.78224 c 0.470947,-0.0889 0.928669,0.39227 0.928669,0.89371 z M 29.111674,98.992824 c 0,1.917716 0.0096,3.835916 0.0096,5.758236 0.197714,0.17374 0.330904,0.44666 0.330904,0.75383 0,0.53911 -0.390012,0.96582 -0.873066,0.96582 -0.48879,0 -0.872748,-0.42671 -0.872748,-0.96582 0,-0.30717 0.133351,-0.58009 0.340623,-0.75782 v -4.55612 H 27.15544 l -0.776997,0.74032 v 1.16071 c 0.20138,0.17045 0.32501,0.44358 0.32501,0.75714 0,0.53272 -0.387144,0.95965 -0.869737,0.95965 -0.482927,0 -0.86666,-0.42693 -0.86666,-0.95965 0,-0.32741 0.145313,-0.62071 0.374334,-0.79481 v -1.12304 l -0.779785,-0.74032 h -0.798671 v 4.56648 c 0.198032,0.18089 0.321999,0.45065 0.321999,0.74746 0,0.53911 -0.39339,0.96582 -0.875759,0.96582 -0.486288,0 -0.867108,-0.42671 -0.867108,-0.96582 0,-0.31384 0.133302,-0.59046 0.350008,-0.76477 l -0.0092,-5.740971 h 2.15093 l 1.037181,0.99364 1.10505,-0.99364 z m -7.499002,4.835776 h -0.929657 v -3.58318 c -0.253651,-0.16742 -0.423931,-0.471175 -0.423931,-0.815857 0,-0.532307 0.3899,-0.958856 0.872827,-0.958856 0.483118,0 0.869848,0.426549 0.869848,0.958856 0,0.330979 -0.15994,0.625057 -0.389087,0.794947 v 3.58426 0.0198"
       style="fill:#db1f26;fill-opacity:1;fill-rule:evenodd;stroke:none;stroke-width:0.0167299"
       inkscape:export-filename="olimex.png"
       inkscape:export-xdpi="40"
       inkscape:export-ydpi="40" />
  </g>
</svg>
