<?xml version="1.0" encoding="UTF-8" standalone="no"?>
<!-- Created with Inkscape (http://www.inkscape.org/) -->

<svg
   version="1.1"
   id="svg1"
   width="257.33334"
   height="257.33334"
   viewBox="0 0 257.33334 257.33334"
   sodipodi:docname="olimex.svg"
   inkscape:version="1.4 (e7c3feb100, 2024-10-09)"
   xmlns:inkscape="http://www.inkscape.org/namespaces/inkscape"
   xmlns:sodipodi="http://sodipodi.sourceforge.net/DTD/sodipodi-0.dtd"
   xmlns="http://www.w3.org/2000/svg"
   xmlns:svg="http://www.w3.org/2000/svg">
  <defs
     id="defs1" />
  <sodipodi:namedview
     id="namedview1"
     pagecolor="#ffffff"
     bordercolor="#000000"
     borderopacity="0.25"
     inkscape:showpageshadow="2"
     inkscape:pageopacity="0.0"
     inkscape:pagecheckerboard="0"
     inkscape:deskcolor="#d1d1d1"
     inkscape:zoom="4.2940412"
     inkscape:cx="128.78311"
     inkscape:cy="128.66667"
     inkscape:window-width="2560"
     inkscape:window-height="1376"
     inkscape:window-x="0"
     inkscape:window-y="0"
     inkscape:window-maximized="1"
     inkscape:current-layer="g1"
     inkscape:antialias-rendering="false">
    <inkscape:page
       x="0"
       y="0"
       inkscape:label="1"
       id="page1"
       width="257.33334"
       height="257.33334"
       margin="0"
       bleed="0" />
  </sodipodi:namedview>
  <g
     id="g1"
     inkscape:groupmode="layer"
     inkscape:label="1">
    <path
       id="path1"
       d="M 0,1927.56 H 1927.56 V 0 H 0 v 1927.56"
       style="fill:#000000;fill-opacity:1.0;fill-rule:evenodd;stroke:none"
       transform="matrix(0.13333333,0,0,-0.13333333,0,257.33333)" />
    <path
       id="path2"
       d="m 21.765748,102.85345 -0.606623,-0.32278 v -3.700759 l -1.485569,0.0025 v 4.027979 l 1.472407,0.80042 h 0.02597 l 0.01252,0.009 0.03046,-0.009 h 2.910374 c 0.223836,0.13019 0.542559,0.21371 0.899441,0.21371 0.671729,0 1.209703,-0.29041 1.209703,-0.65236 0,-0.36177 -0.537974,-0.65414 -1.209703,-0.65414 -0.412969,0 -0.783279,0.1136 -1.002816,0.28542 z m -8.584576,-2.56382 c 0.279855,0.11131 0.460768,0.29475 0.460768,0.50107 0,0.20195 -0.180913,0.38263 -0.456602,0.49636 l 0.009,1.11644 0.796113,0.44995 h 2.16975 l 0.779492,-0.45509 v -2.38257 l -0.761831,-0.43398 -2.226014,0.0025 -0.770671,0.43136 z m -1.47214,0.95106 c -0.228439,-0.10896 -0.370486,-0.27136 -0.370486,-0.44999 0,-0.18327 0.142047,-0.3457 0.370486,-0.45448 v -0.561776 l 1.765158,-0.948833 3.151095,-0.0025 1.821265,0.993141 v 2.849278 l -1.7695,0.98139 h -3.20286 l -1.765158,-0.95577 z m 0.774728,-0.64962 c 0.210937,0 0.374366,0.0881 0.374366,0.20192 0,0.11127 -0.163429,0.19966 -0.374366,0.19966 -0.206617,0 -0.370135,-0.0884 -0.370135,-0.19966 0,-0.11379 0.163518,-0.20192 0.370135,-0.20192 z m 29.727549,0.41311 c 0.215172,0 0.388018,0.095 0.388018,0.21343 0,0.11616 -0.172846,0.21351 -0.388018,0.21351 -0.219602,0 -0.391562,-0.0974 -0.391562,-0.21351 0,-0.11845 0.17196,-0.21343 0.391562,-0.21343 z m 6.850245,-2.046247 c 0.218715,0 0.395771,0.09279 0.395771,0.208636 0,0.113453 -0.177056,0.211142 -0.395771,0.211142 -0.216059,0 -0.38824,-0.09769 -0.38824,-0.211142 0,-0.115843 0.172181,-0.208636 0.38824,-0.208636 z m -13.751456,4.087947 c 0.219383,0 0.392006,0.0928 0.392006,0.21109 0,0.12082 -0.172623,0.21338 -0.392006,0.21338 -0.214729,0 -0.387573,-0.0926 -0.387573,-0.21338 0,-0.11827 0.172844,-0.21109 0.387573,-0.21109 z m -7.460634,0 c 0.219094,0 0.391695,0.0928 0.391695,0.21109 0,0.12082 -0.172601,0.21338 -0.391695,0.21338 -0.215371,0 -0.396195,-0.0926 -0.396195,-0.21338 0,-0.11827 0.180824,-0.21109 0.396195,-0.21109 z m -2.828824,-0.0323 c 0.223923,0 0.395926,0.0948 0.395926,0.21343 0,0.11583 -0.172003,0.20899 -0.395926,0.20899 -0.219604,0 -0.391697,-0.0932 -0.391697,-0.20899 0,-0.11864 0.172093,-0.21343 0.391697,-0.21343 z m -0.06043,-4.100082 c 0.219514,0 0.391785,0.09518 0.391785,0.21365 0,0.1162 -0.172271,0.213292 -0.391785,0.213292 -0.215017,0 -0.396017,-0.09709 -0.396017,-0.213292 0,-0.118469 0.181,-0.21365 0.396017,-0.21365 z m 6.553059,2.331992 c 0.21936,0 0.391098,0.095 0.391098,0.21333 0,0.11639 -0.171738,0.21338 -0.391098,0.21338 -0.215546,0 -0.39646,-0.097 -0.39646,-0.21338 0,-0.1183 0.180914,-0.21333 0.39646,-0.21333 z m 17.581745,1.83522 c 0.202762,0 0.374944,0.0931 0.374944,0.204 0,0.10907 -0.172182,0.19974 -0.374944,0.19974 -0.206527,0 -0.369845,-0.0907 -0.369845,-0.19974 0,-0.11093 0.163318,-0.204 0.369845,-0.204 z m 1.136796,0.17834 c 0,0.32283 -0.486185,0.59661 -1.067879,0.62898 -0.735925,0.0301 -1.380995,-0.33167 -1.252469,-0.72391 l -2.217526,-1.07874 -2.914008,1.57543 h -3.728597 l -1.49379,-0.80738 v -0.002 -3.137044 l 1.558495,-0.890913 h 3.702452 l 2.928188,1.556827 2.113376,-1.146126 c 0,-0.02531 -0.0128,-0.04622 -0.0128,-0.06974 0,-0.361855 0.542028,-0.654088 1.214355,-0.654088 0.679418,0 1.222332,0.292233 1.222332,0.654088 0,0.361973 -0.542914,0.652174 -1.222332,0.652174 -0.05696,0 -0.108352,0 -0.164203,-0.005 l -2.277802,1.222902 h -1.794985 c -0.856697,-0.46168 -1.751952,-0.92564 -2.625931,-1.394267 h -2.552803 l -0.597871,0.322198 V 100.846 H 41.2128 c 0.214947,-0.1738 0.576817,-0.28057 0.998516,-0.28057 0.667674,0 1.205492,0.29018 1.205492,0.65185 0,0.36215 -0.537818,0.65185 -1.205492,0.65185 -0.447404,0 -0.830769,-0.1323 -1.041729,-0.32245 h -2.121582 v 0.99286 l 0.60629,0.31359 h 2.557014 l 2.626594,-1.41537 1.765026,0.002 2.337187,1.21155 c 0.655044,-0.0605 1.291692,0.26666 1.291692,0.60753 z M 36.059319,98.825637 c 0,1.303643 0.01335,2.607613 0.01335,3.914383 0.275002,0.11811 0.460256,0.30363 0.460256,0.51245 0,0.36648 -0.54247,0.65655 -1.214354,0.65655 -0.679861,0 -1.213911,-0.29007 -1.213911,-0.65655 0,-0.20882 0.185479,-0.39434 0.473775,-0.51516 v -3.097201 h -1.240059 l -1.080731,0.503261 v 0.78904 c 0.280101,0.11587 0.452059,0.30154 0.452059,0.51469 0,0.36214 -0.538481,0.65236 -1.209724,0.65236 -0.671706,0 -1.205444,-0.29022 -1.205444,-0.65236 0,-0.22256 0.202118,-0.42195 0.520665,-0.5403 v -0.76343 l -1.084609,-0.503261 h -1.110878 v 3.104241 c 0.275445,0.12297 0.447871,0.30635 0.447871,0.50812 0,0.36648 -0.547169,0.65655 -1.2181,0.65655 -0.676381,0 -1.206066,-0.29007 -1.206066,-0.65655 0,-0.21335 0.18541,-0.40139 0.486829,-0.51989 l -0.0128,-3.902644 h 2.991744 l 1.442623,0.675464 1.537022,-0.675464 z m -10.430417,3.287313 h -1.293066 v -2.435811 c -0.352805,-0.113809 -0.589649,-0.320302 -0.589649,-0.554613 0,-0.361856 0.542315,-0.651819 1.214021,-0.651819 0.671973,0 1.209878,0.289963 1.209878,0.651819 0,0.224997 -0.222461,0.424905 -0.541184,0.540397 v 2.436537 0.0134"
       style="fill:#db1f26;fill-opacity:1;fill-rule:evenodd;stroke:none;stroke-width:0.0162678"
       inkscape:export-filename="olimex.png"
       inkscape:export-xdpi="40"
       inkscape:export-ydpi="40" />
  </g>
</svg>
